<svg width="100%" height="100%" viewBox="0 0 40 40" xmlns="http://www.w3.org/2000/svg">
<path  fill-rule="evenodd" clip-rule="evenodd" d="M40 20C40 31.0457 31.0459 40 20 40C8.9541 40 0 31.0457 0 20C0 8.9543 8.9541 0 20 0C31.0459 0 40 8.9543 40 20ZM20 6C21.1045 6 22 6.89543 22 8V18H32C33.1045 18 34 18.8954 34 20C34 21.1046 33.1045 22 32 22H22V32C22 33.1046 21.1045 34 20 34C18.8955 34 18 33.1046 18 32V22H8C6.89551 22 6 21.1046 6 20C6 18.8954 6.89551 18 8 18H18V8C18 6.89543 18.8955 6 20 6Z" fill="#F0F6FC"/>
</svg>
